<svg width="64" height="64" viewBox="0 0 64 64" fill="none" xmlns="http://www.w3.org/2000/svg">
  <rect width="64" height="64" rx="18" fill="url(#bg)" />
  <circle cx="32" cy="32" r="24" fill="url(#glow)" fill-opacity="0.28" />
  <path
    d="M24 22.5C24 20.567 25.567 19 27.5 19C29.433 19 31 20.567 31 22.5V24.5"
    stroke="#FFF2D6"
    stroke-width="3"
    stroke-linecap="round"
  />
  <path
    d="M33 20C34.933 20 36.5 21.567 36.5 23.5V24.5"
    stroke="#FFE6B0"
    stroke-width="3"
    stroke-linecap="round"
  />
  <path
    d="M20 28C20 26.8954 20.8954 26 22 26H41C42.1046 26 43 26.8954 43 28V30C43 36.6274 37.6274 42 31 42C24.3726 42 19 36.6274 19 30V28H20Z"
    fill="#FFF7E7"
  />
  <path
    d="M43 28H45.5C48.5376 28 51 30.4624 51 33.5C51 36.5376 48.5376 39 45.5 39H42"
    stroke="#FFF7E7"
    stroke-width="3"
    stroke-linecap="round"
    stroke-linejoin="round"
  />
  <path
    d="M22 28H40V30C40 34.9706 35.9706 39 31 39C26.0294 39 22 34.9706 22 30V28Z"
    fill="#C46A2D"
  />
  <path
    d="M25 45H39"
    stroke="#FFE6B0"
    stroke-width="3"
    stroke-linecap="round"
  />
  <defs>
    <linearGradient id="bg" x1="8" y1="7" x2="56" y2="58" gradientUnits="userSpaceOnUse">
      <stop stop-color="#6D2C12" />
      <stop offset="0.5" stop-color="#A54B16" />
      <stop offset="1" stop-color="#E1A33A" />
    </linearGradient>
    <radialGradient id="glow" cx="0" cy="0" r="1" gradientUnits="userSpaceOnUse" gradientTransform="translate(32 23) rotate(90) scale(33)">
      <stop stop-color="#FFF5DB" />
      <stop offset="1" stop-color="#FFF5DB" stop-opacity="0" />
    </radialGradient>
  </defs>
</svg>
